<?xml version="1.0" encoding="UTF-8"?>
<svg version="1.1" viewBox="0 0 1024 1024" width="1024" height="1024" xmlns="http://www.w3.org/2000/svg">
<path transform="translate(508,187)" d="m0 0h1l1 188 10-15 12-13 11-9 13-8 14-6 14-4 13-2h26l17 3 16 5 16 8 11 7 14 12 10 11 10 15 9 19 6 21 2 13v30l-3 18-5 17-7 16-9 16-14 20-14 19-12 16-16 21-13 17-12 16-16 21-12 16-14 18-9 12-2 2h-58l2-4 13-16 22-28 13-16 10-13 33-42 14-18 22-28 12-16 10-15 9-16 6-14 5-20 1-8v-22l-3-17-6-16-6-11-8-10-8-8-14-9-13-5-10-2h-20l-16 4-13 7-10 8-8 9-8 14-5 13-3 16v21l3 15 5 12 7 12 9 10 13 9 16 7 15 3h25l-3 5-12 14-9 11-4 4-17-2-16-4-12-5-14-8-11-9-10-10-9-13-5-9-1 117h-37l-1-315-10 11-9 11-12 13-7 8-12 14-10 11-9 11-14 15-9 11-13 14-9 11-12 13-6 7 123 1v45h-219l6-8 12-13 9-11 13-14 7-8 9-10 9-11 13-14 7-8 12-14 11-12 8-10h2l2-4 14-15 7-8 12-14 13-14 7-8 9-10 7-8 11-12 7-8 11-12 7-8 10-11 7-8 11-12 9-10z" fill="#0E0E0E"/>
<path transform="translate(578,782)" d="m0 0h11l8 3 7 8 1 4v16l-4 10-8 6-7 2h-7l-10-3-5-5 4-5 9 3h10l5-4 3-7-6 3h-13l-8-4-4-7v-8l3-6 5-4zm6 8-7 2-3 4 2 6 4 3h8l5-2 1-2v-6l-4-4z" fill="#0E0E0E"/>
<path transform="translate(700,783)" d="m0 0h10v18h23v-18h10v47h-10v-20h-23v20h-10z" fill="#0E0E0E"/>
<path transform="translate(381,783)" d="m0 0h37v9h-27v10h22v8h-22v11h26l1 3v5l-1 1h-36z" fill="#0E0E0E"/>
<path transform="translate(308,783)" d="m0 0h10v18h21v-18h10v47h-10v-20h-21v20h-10z" fill="#0E0E0E"/>
<path transform="translate(511,783)" d="m0 0h16v28h7v9h-7v10h-10v-10h-26v-10l8-10zm5 9-12 16-2 3h15v-19z" fill="#0E0E0E"/>
<path transform="translate(632,783)" d="m0 0h40v9h-15v38h-10v-38h-15z" fill="#0E0E0E"/>
<path transform="translate(239,783)" d="m0 0h40v9h-14v38h-10v-38h-16z" fill="#0E0E0E"/>
</svg>
